inDegrees=no
num_controls=7
num_derivatives=13
num_iterations=164
num_multipliers=7
num_parameters=0
num_slacks=7
num_states=26
objective=5.360472
objective_accelerations=0.545350
objective_balance=0.048137
objective_effort=0.476914
objective_height=4.207701
objective_ligament=0.082369
solver_duration=1831.578294
status=Solve_Succeeded
success=true
DataType=double
version=3
OpenSimVersion=4.4-2022-07-23-0e9fedc
endheader
time	/jointset/ground_pelvis/pelvis_tilt/value	/jointset/ground_pelvis/pelvis_tx/value	/jointset/ground_pelvis/pelvis_ty/value	/jointset/hip_l/hip_flexion_l/value	/jointset/hip_l/hip_adduction_l/value	/jointset/hip_l/hip_rotation_l/value	/jointset/back/lumbar_extension/value	/jointset/patellofemoral_l/patellar_flexion_l/value	/jointset/knee_l/knee_flexion_l/value	/jointset/knee_l/knee_adduction_l/value	/jointset/knee_l/knee_rotation_l/value	/jointset/ankle_l/ankle_angle_l/value	/jointset/subtalar_l/subtalar_angle_l/value	/jointset/ground_pelvis/pelvis_tilt/speed	/jointset/ground_pelvis/pelvis_tx/speed	/jointset/ground_pelvis/pelvis_ty/speed	/jointset/hip_l/hip_flexion_l/speed	/jointset/hip_l/hip_adduction_l/speed	/jointset/hip_l/hip_rotation_l/speed	/jointset/back/lumbar_extension/speed	/jointset/patellofemoral_l/patellar_flexion_l/speed	/jointset/knee_l/knee_flexion_l/speed	/jointset/knee_l/knee_adduction_l/speed	/jointset/knee_l/knee_rotation_l/speed	/jointset/ankle_l/ankle_angle_l/speed	/jointset/subtalar_l/subtalar_angle_l/speed	/forceset/tau_hip_flexion_l	/forceset/tau_hip_adduction_l	/forceset/tau_hip_rotation_l	/forceset/tau_knee_flexion_l	/forceset/tau_ankle_angle_l	/forceset/tau_subtalar_angle_l	/forceset/tau_lumbar_extension	lambda_cid13_p0	lambda_cid13_p1	lambda_cid13_p2	lambda_cid13_p3	lambda_cid13_p4	lambda_cid13_p5	lambda_cid14_p0	/jointset/ground_pelvis/pelvis_tilt/accel	/jointset/ground_pelvis/pelvis_tx/accel	/jointset/ground_pelvis/pelvis_ty/accel	/jointset/hip_l/hip_flexion_l/accel	/jointset/hip_l/hip_adduction_l/accel	/jointset/hip_l/hip_rotation_l/accel	/jointset/back/lumbar_extension/accel	/jointset/patellofemoral_l/patellar_flexion_l/accel	/jointset/knee_l/knee_flexion_l/accel	/jointset/knee_l/knee_adduction_l/accel	/jointset/knee_l/knee_rotation_l/accel	/jointset/ankle_l/ankle_angle_l/accel	/jointset/subtalar_l/subtalar_angle_l/accel	gamma_cid13_p0	gamma_cid13_p1	gamma_cid13_p2	gamma_cid13_p3	gamma_cid13_p4	gamma_cid13_p5	gamma_cid14_p0
1.5	-0.4879052201607693	-0.1031777212891339	0.7648253125385163	1.281095460221454	-0.3100267782449484	-0.08743022385363557	-0.3450049893906434	0.5861619368097357	0.5861619368098049	-0.1741909829340228	0.1744479071115455	-0.05190408192054037	-0.06585853212256805	0.8572516921055784	0.3381586533929848	0.4692672557022194	-2.366768947360251	0.06513056856703445	-0.4910796289876105	0.5651685592633119	-1.462283680959912	-1.462283680959891	0.002590820874224036	-0.001753092742918642	-0.01092159044288435	0.07632538452545401	-0.2682261274370949	0.009055217837643084	-0.01848500559887884	-0.1793632463475955	0.1845969232468064	0.04684417688166127	0.2351414086533724	19.83811268657563	-26.18661216976357	6.47804135250214	-7.529564893231933	-612.2338372757387	-64.63824863181691	-33.79949568450895	0.6144926554003088	0.7273144662605812	-0.2196774751125325	-1.588618058442585	0.4283273383383575	-0.2012261749267127	1.746868608946828	-0.946806714202422	-0.9468067142024228	0.02085554704833355	-0.05654438620763634	0.1145675870348666	0.4388607512277247	-2.974597630535556e-08	6.960609204515723e-07	-7.394862873945224e-08	1.429097714595852e-07	1.387718762076636e-07	-1.102282176605203e-07	1.045464661934458e-07
1.51	-0.4793024668958796	-0.09976005892603163	0.7695061093486493	1.257350593458414	-0.3093548886470763	-0.09235147366213768	-0.3392674334084865	0.571493848713127	0.571493848713139	-0.1741651639211532	0.1744290168421771	-0.05200759299702616	-0.06507416310174145	0.8631770418783102	0.3453349895065888	0.4667989037705809	-2.381879291651115	0.06924567234795417	-0.4931026318906745	0.5822696163713178	-1.471131916193896	-1.471131916193915	0.002567226691566017	-0.002028675051806436	-0.009767247795439166	0.08054689310981065	-0.2595683428998761	0.008341906820830358	-0.0184628910937621	-0.1783984139785735	0.1829256589334362	0.04590843017317311	0.2285611164221351	19.54648824031669	-25.85146564777551	6.5643168757771	-7.278057447899539	-607.7683980182278	-64.81207350990779	-34.49158567933361	0.563273973911535	0.7069986876611495	-0.2743635761790188	-1.423467705711642	0.4027401529570102	-0.1925639665694458	1.68077114215482	-0.8235502173171023	-0.8235502173231548	-0.01468986403127975	-0.01355294350853451	0.1178735369243836	0.4134575227947118	-3.425221834447404e-08	7.350255450261813e-07	-7.199040412149631e-08	1.474628063597211e-07	1.490172140085558e-07	-1.023824179268818e-07	1.068737155980166e-07
1.52	-0.4706441165661202	-0.09627179210104339	0.774159432734668	1.233464378234207	-0.3086419203603966	-0.09729089882338474	-0.3333610574791634	0.556743334606315	0.5567433346062686	-0.174139725442733	0.174407273191658	-0.0520991594603689	-0.06424764667292029	0.8683711050791171	0.3522795457701853	0.4637725708793944	-2.395038639594115	0.07334630632840204	-0.4947146995366657	0.5989325486964224	-1.47876888300071	-1.478768883000768	0.002514713984571938	-0.002323768971861141	-0.008532667814991034	0.08475486612437089	-0.2509105583626521	0.007628595804019918	-0.0184407765886589	-0.1774335816095436	0.1812543946200697	0.04497268346468791	0.2219808241909007	19.24556878397223	-25.5161436664797	6.652222864191212	-6.993017760978864	-603.4355988625395	-65.02707455843543	-35.15883289630831	0.4682353410152836	0.6809584962591945	-0.331273667022106	-1.198418788869672	0.4254333782439652	-0.1190391235121642	1.65924365236661	-0.7045530287683945	-0.7045530287683356	0.01507184218109549	-0.0604467084409788	0.1306150536355675	0.4361536372684481	-3.869028060970792e-08	7.717366867672383e-07	-7.041819035834084e-08	1.511178273222219e-07	1.595935147996442e-07	-9.361236785793505e-08	1.087687290350861e-07
1.53	-0.461937486181598	-0.09271531954223282	0.7787797348977702	1.209456369001502	-0.3078880781588957	-0.1022444984190534	-0.3272904755927263	0.5419225573031131	0.5419225573030618	-0.1741149891091174	0.174382578377631	-0.05217800937157856	-0.06337918039985697	0.872827150121153	0.3589671860839843	0.460196826849318	-2.406221926465866	0.077416318527343	-0.4959371359280462	0.6150922604165807	-1.485174962826939	-1.485174962826964	0.002427620265118998	-0.00261782780524211	-0.0072255779119958	0.08893260033183109	-0.2421268669872052	0.006764243460295249	-0.01845432536015185	-0.1764786489819372	0.1796359102687555	0.04391930968411095	0.215242286314318	18.96075626068622	-25.13590494028081	6.736792790029829	-6.692452752750231	-599.0521371280083	-65.17389275673847	-35.7983133339332	0.4151198690499081	0.6555308659089795	-0.3843447303435441	-1.027084996330534	0.396791154060012	-0.113510169670332	1.580599705648415	-0.5769154322503738	-0.5769154322454781	-0.02118821038956682	-0.0142075286751525	0.132515134844216	0.4075946941408399	-4.305590186518943e-08	8.060535029976462e-07	-6.925611312841085e-08	1.538187084759856e-07	1.705214637678161e-07	-8.386030180772342e-08	1.102044917566856e-07
1.54	-0.4531901291900031	-0.08909339776689078	0.7833615556287029	1.185346766628075	-0.3070937346327371	-0.1072082552331679	-0.3210610436343269	0.5270440632071092	0.5270440632070569	-0.1740912413589829	0.1743548785636895	-0.05224343654850772	-0.06246913450838786	0.8765164264932673	0.3653693890764785	0.4560762844455422	-2.415357267737735	0.0814465712599073	-0.496746143228197	0.6307025630890628	-1.490312241561175	-1.490312241561168	0.002316997290428212	-0.002924768954162784	-0.005848120960489887	0.09307078980553495	-0.2333431756117659	0.005899891116608082	-0.01846787413169508	-0.1755237163543004	0.1780174259174661	0.04286593590357476	0.2085037484377058	18.66654674089202	-24.75518278502997	6.822612722323478	-6.355036485870701	-594.8004389714791	-65.36169154418639	-36.40722107042229	0.3148816070309843	0.6238710319982911	-0.4402333417619655	-0.7888296688932513	0.4174814849686148	-0.03635330526624067	1.549361842831372	-0.4507928103697739	-0.4507928103698964	0.01036599113350753	-0.06302317154888522	0.1446884633378226	0.4282446905171939	-4.245229027763298e-08	8.303279039892131e-07	-8.173369107571778e-08	1.497481924223265e-07	1.869978268506215e-07	-7.509648026259928e-08	1.125063235463998e-07
